# xmcd
#
# Track frame offsets:
# 150
# 15690
# 32357
# 50487
# 64677
# 82825
# 96190
# 113782
# 130545
# 144362
# 160050
#
# Disc length: 2567 seconds
#
#
# Revision: 2
# Processed by: cddbd v1.5.1PL0 Copyright (c) Steve Scherf et al.
# Submitted via: FreeRIP 2.60 
#
DISCID=7c0a050b
DTITLE=Rare Earth - Different World
DYEAR=1993
DGENRE=Classic Rock
TTITLE0=She's Trouble
TTITLE1=Livin'in A Different World
TTITLE2=Reach Out
TTITLE3=I Got The Feeling
TTITLE4=Can't Stop Love
TTITLE5=Lady Madonna
TTITLE6=Slippin'  Away
TTITLE7=Live It Up
TTITLE8=How Sweet It Is
TTITLE9=Hey, Pretty Baby
TTITLE10=Tobacco Road
EXTD=
EXTT0=
EXTT1=
EXTT2=
EXTT3=
EXTT4=
EXTT5=
EXTT6=
EXTT7=
EXTT8=
EXTT9=
EXTT10=
PLAYORDER=
